# File created by Blade
# Date/Time:  Thu Jan 22 16:21:39 2015
# Frame Rate: 120.000 fps
#------------------------------------------------------
:FULLY-SPECIFIED
:DEGREES
2165
root 0.413535 38.189738 6.650289 -22.563873 -15.556720 11.067473
RightUpLeg 24.767009 -9.472149 -11.372969
RightLeg 3.917308 -0.000000 -0.000000
RightFoot -10.799266 2.849749 20.671142
RightToeBase 19.603807 -0.000000 -0.000000
LeftUpLeg -72.755366 -24.415626 -17.177734
LeftLeg 110.482670 -0.000000 -0.000000
LeftFoot 5.717852 8.992329 -30.878854
LeftToeBase 7.022779 -0.000000 -0.000000
Spine 40.649386 40.526842 24.471692
RightShoulder 7.199028 -20.121390 -27.968107
RightArm 17.089063 -10.303998 52.399917
RightForeArm -9.101861 -0.000000 80.706096
RightHand -4.519771 -0.000000 8.758395
RightHandThumb1 -24.326973 -0.000000 -32.862282
LeftShoulder -41.540372 32.352930 0.763556
LeftArm 29.488289 -63.485671 -72.389659
LeftForeArm -9.673299 0.000000 4.923808
LeftHand -27.654780 -0.000000 37.381703
LeftHandThumb1 -26.253704 0.000000 33.147579
Head 20.120434 71.417579 -6.164685
2166
root 0.419841 38.197875 6.678470 -22.633967 -15.568585 11.102006
RightUpLeg 24.875130 -9.618987 -11.542683
RightLeg 3.907001 -0.000000 -0.000000
RightFoot -10.719534 3.041048 20.825647
RightToeBase 19.563588 -0.000000 -0.000000
LeftUpLeg -72.748987 -24.401729 -17.183445
LeftLeg 110.530593 -0.000000 -0.000000
LeftFoot 5.817187 8.856998 -30.826593
LeftToeBase 7.121180 -0.000000 -0.000000
Spine 40.761607 40.473229 24.717619
RightShoulder 7.237710 -20.148112 -28.028124
RightArm 16.879674 -10.205158 52.458452
RightForeArm -9.248351 0.000000 80.968847
RightHand -4.558962 -0.000000 8.702537
RightHandThumb1 -24.326973 -0.000000 -32.862282
LeftShoulder -41.574086 32.359021 0.706139
LeftArm 29.449892 -63.533684 -72.450791
LeftForeArm -10.034168 -0.000000 4.936410
LeftHand -27.651805 -0.000000 37.677143
LeftHandThumb1 -26.253704 0.000000 33.147579
Head 20.557492 71.543277 -5.893969
2167
root 0.429467 38.207246 6.705580 -22.687185 -15.556154 11.143894
RightUpLeg 24.962157 -9.815175 -11.741157
RightLeg 3.901629 -0.000000 -0.000000
RightFoot -10.621298 3.245654 21.015788
RightToeBase 19.980396 -0.000000 -0.000000
LeftUpLeg -72.736386 -24.419908 -17.205180
LeftLeg 110.549335 -0.000000 -0.000000
LeftFoot 5.895972 8.800467 -30.747473
LeftToeBase 7.056984 -0.000000 -0.000000
Spine 40.834628 40.403699 24.904956
RightShoulder 7.268694 -20.148795 -28.068480
RightArm 16.678523 -10.120567 52.517454
RightForeArm -9.397097 -0.000000 81.196915
RightHand -4.636697 0.000000 8.607096
RightHandThumb1 -24.326973 -0.000000 -32.862282
LeftShoulder -41.565738 32.353301 0.652385
LeftArm 29.233372 -63.568590 -72.341300
LeftForeArm -10.491470 0.000000 4.950199
LeftHand -27.714197 -0.000000 37.857777
LeftHandThumb1 -26.253704 0.000000 33.147579
Head 20.673297 71.637093 -5.942340
2168
root 0.436838 38.217802 6.732641 -22.741670 -15.519422 11.190895
RightUpLeg 25.057527 -10.041335 -11.950364
RightLeg 3.897065 -0.000000 -0.000000
RightFoot -10.526693 3.424410 21.164526
RightToeBase 20.203085 -0.000000 -0.000000
LeftUpLeg -72.730000 -24.446067 -17.212460
LeftLeg 110.572944 -0.000000 -0.000000
LeftFoot 5.978201 8.736688 -30.779114
LeftToeBase 7.165532 -0.000000 -0.000000
Spine 40.898797 40.338980 25.068130
RightShoulder 7.271513 -20.215118 -28.101667
RightArm 16.585203 -9.994359 52.583378
RightForeArm -9.445018 -0.000000 81.364156
RightHand -4.771571 -0.000000 8.599990
RightHandThumb1 -24.326973 -0.000000 -32.862282
LeftShoulder -41.660677 32.382124 0.552475
LeftArm 29.459672 -63.602035 -72.624603
LeftForeArm -10.792783 -0.000000 4.917470
LeftHand -27.700470 -0.000000 38.154599
LeftHandThumb1 -26.253704 0.000000 33.147579
Head 20.945511 71.756863 -5.796336
2169
root 0.443136 38.228630 6.757407 -22.768155 -15.480160 11.231855
RightUpLeg 25.133275 -10.222630 -12.111851
RightLeg 3.865399 -0.000000 -0.000000
RightFoot -10.445964 3.511640 21.353613
RightToeBase 20.434483 -0.000000 -0.000000
LeftUpLeg -72.748069 -24.480809 -17.205721
LeftLeg 110.595168 -0.000000 -0.000000
LeftFoot 6.035694 8.738520 -30.812110
LeftToeBase 7.178636 -0.000000 -0.000000
Spine 40.942332 40.297366 25.225926
RightShoulder 7.251042 -20.268905 -28.124824
RightArm 16.451476 -9.898544 52.653041
RightForeArm -9.480783 -0.000000 81.558264
RightHand -4.827241 -0.000000 8.641516
RightHandThumb1 -24.326973 -0.000000 -32.862282
LeftShoulder -41.579505 32.329022 0.560234
LeftArm 29.160410 -63.612060 -72.443282
LeftForeArm -11.224295 0.000000 4.947344
LeftHand -27.719187 -0.000000 38.280685
LeftHandThumb1 -26.253704 0.000000 33.147579
Head 21.108826 71.836721 -5.758651
2170
root 0.456174 38.242505 6.783720 -22.822512 -15.463035 11.311811
RightUpLeg 25.212864 -10.379149 -12.319195
RightLeg 3.840142 -0.000000 -0.000000
RightFoot -10.352939 3.614241 21.541592
RightToeBase 20.629466 -0.000000 -0.000000
LeftUpLeg -72.730081 -24.500371 -17.246919
LeftLeg 110.584745 -0.000000 -0.000000
LeftFoot 6.085376 8.806375 -30.682458
LeftToeBase 7.079231 -0.000000 -0.000000
Spine 41.003442 40.254623 25.371657
RightShoulder 7.285311 -20.265395 -28.171945
RightArm 16.264715 -9.834814 52.735840
RightForeArm -9.542400 0.000000 81.726314
RightHand -4.857878 -0.000000 8.755764
RightHandThumb1 -24.326973 -0.000000 -32.862282
LeftShoulder -41.706538 32.416130 0.419017
LeftArm 29.551414 -63.662376 -72.939554
LeftForeArm -11.486544 -0.000000 4.968379
LeftHand -27.648180 -0.000000 38.567439
LeftHandThumb1 -26.253704 0.000000 33.147579
Head 21.242352 71.875248 -5.758645
